<svg width="109" height="55" viewBox="0 0 109 55" fill="none" xmlns="http://www.w3.org/2000/svg">
<g clip-path="url(#clip0_84_20)">
<path d="M0 22.7538H7.66267C9.33183 22.7538 10.5792 23.1602 11.4108 23.9787C12.2425 24.7972 12.6583 25.9573 12.6583 27.4589C12.6583 28.9605 12.2068 30.2148 11.298 31.0863C10.3951 31.9578 9.01106 32.3936 7.15183 32.3936H4.6273V38.082H0V22.748V22.7538ZM4.63324 29.2902H5.76185C6.65286 29.2902 7.27657 29.1313 7.63297 28.8133C7.99531 28.4953 8.17352 28.089 8.17352 27.5943C8.17352 27.0997 8.01907 26.7051 7.70425 26.3695C7.38943 26.0338 6.8073 25.8689 5.94599 25.8689H4.63324V29.2902Z" fill="white"/>
<path d="M13.5671 22.7538H18.6874L21.6931 27.924L24.7047 22.7538H29.7953L23.9919 31.6633V38.0819H19.3705V31.6633L13.5611 22.7538H13.5671Z" fill="white"/>
<path d="M31.3457 38.0819V22.7479H39.0262C40.4518 22.7479 41.5388 22.8715 42.2932 23.1247C43.0476 23.3779 43.6535 23.8432 44.1168 24.5203C44.5801 25.1975 44.8118 26.0278 44.8118 27.0054C44.8118 27.8533 44.6336 28.5894 44.2831 29.2077C43.9326 29.826 43.4456 30.3266 42.8278 30.7093C42.4358 30.9508 41.8952 31.1569 41.2062 31.3159C41.7526 31.5043 42.1566 31.6927 42.4061 31.8812C42.5783 32.0048 42.8219 32.2757 43.1426 32.6879C43.4634 33.1001 43.6772 33.4181 43.7901 33.6419L46.0235 38.0819H40.8141L38.349 33.3945C38.0342 32.788 37.7609 32.3935 37.5114 32.2109C37.1788 31.9754 36.8046 31.8576 36.3828 31.8576H35.973V38.0819H31.3457ZM35.973 28.9604H37.9154C38.1233 28.9604 38.5331 28.8897 39.139 28.7484C39.442 28.6836 39.6915 28.5246 39.8875 28.2655C40.0835 28.0064 40.1785 27.712 40.1785 27.3763C40.1785 26.8817 40.0241 26.4989 39.7212 26.2339C39.4182 25.969 38.842 25.8394 37.9985 25.8394H35.973V28.9545V28.9604Z" fill="white"/>
<path d="M56.6681 35.5498H51.4349L50.7102 38.0819H46.0057L51.6131 22.7479H56.6444L62.2518 38.0819H57.4225L56.6741 35.5498H56.6681ZM55.7118 32.2345L54.0664 26.7227L52.4388 32.2345H55.7118Z" fill="white"/>
<path d="M63.6536 22.7538H69.7184L72.0588 32.0814L74.3814 22.7538H80.4402V38.0878H76.6623V26.3929L73.7517 38.0878H70.3362L67.4315 26.3929V38.0878H63.6536V22.7538Z" fill="white"/>
<path d="M95.2725 22.7538H102.121C103.47 22.7538 104.563 22.9422 105.394 23.3191C106.226 23.6959 106.909 24.2377 107.456 24.9384C107.996 25.6451 108.394 26.4636 108.638 27.394C108.881 28.3303 109.006 29.3196 109.006 30.3619C109.006 31.9989 108.822 33.2709 108.459 34.1718C108.097 35.0728 107.592 35.8324 106.951 36.439C106.309 37.0455 105.614 37.4577 104.872 37.6579C103.862 37.9347 102.947 38.076 102.121 38.076H95.2725V22.742V22.7538ZM99.882 26.2281V34.6076H101.011C101.973 34.6076 102.662 34.4957 103.066 34.2778C103.47 34.06 103.791 33.6772 104.022 33.1296C104.254 32.5819 104.367 31.6927 104.367 30.4679C104.367 28.8426 104.111 27.7297 103.595 27.129C103.078 26.5284 102.222 26.2281 101.028 26.2281H99.8761H99.882Z" fill="white"/>
<path d="M90.9066 39.8544C91.3699 39.9074 91.756 40.0428 92.0649 40.2489C92.3738 40.455 92.5936 40.6965 92.7243 40.9732C92.8549 41.25 92.9381 41.5621 92.9678 41.9095C92.9975 42.2628 92.9916 42.5926 92.944 42.9047C92.8965 43.2168 92.8252 43.5289 92.7243 43.8351C92.5936 44.1708 92.4451 44.5005 92.2847 44.8303C92.1243 45.1601 91.9223 45.5134 91.6788 45.8844C91.4353 46.2553 91.1798 46.6146 90.8947 46.9384C90.6155 47.2682 90.2888 47.5862 89.9206 47.8983C89.5523 48.2045 89.1662 48.4695 88.7682 48.6933C88.3702 48.917 87.9188 49.0937 87.4138 49.2232C86.9089 49.3587 86.3922 49.4234 85.8575 49.4234C84.9131 49.4234 84.0637 49.2173 83.3212 48.7992C82.935 49.7179 82.6024 50.56 82.3232 51.3196C82.044 52.0792 81.8361 52.6799 81.7114 53.1097C81.5867 53.5396 81.4857 53.9106 81.4144 54.2109C81.3431 54.5112 81.3015 54.7173 81.2956 54.8292L81.2837 54.9941C80.3986 54.8292 79.8759 54.1874 79.7215 53.0626C79.7393 52.5856 79.8403 52.0262 80.0185 51.3903C80.1967 50.7543 80.4224 50.1124 80.6838 49.4764C80.9451 48.8405 81.2362 48.1692 81.5451 47.4684C81.854 46.7677 82.1628 46.1081 82.4658 45.4839C82.7687 44.8597 83.042 44.2532 83.2914 43.6643C83.5409 43.0755 83.737 42.5632 83.8855 42.1274C84.028 41.6858 84.0934 41.3207 84.0755 41.0203C84.0577 40.72 83.9449 40.5375 83.731 40.4609C83.5647 40.402 83.2914 40.4432 82.9172 40.5846C82.543 40.7259 82.1272 40.932 81.6758 41.2088C81.2243 41.4797 80.761 41.8094 80.2917 42.1981C79.8225 42.5867 79.4067 42.9813 79.0384 43.3935C78.6701 43.7998 78.3909 44.2297 78.2008 44.6713C78.0107 45.113 77.9632 45.5193 78.0523 45.8726C78.0939 45.955 78.1949 46.008 78.3493 46.0198C78.5038 46.0375 78.6285 46.008 78.7235 45.9432C78.8899 45.8667 79.0621 45.7489 79.2403 45.5899C79.4185 45.4309 79.573 45.2896 79.6918 45.1542C79.8106 45.0187 79.9769 44.901 80.1848 44.8009C80.3927 44.7007 80.6184 44.6419 80.862 44.636C81.5094 44.7125 81.8421 44.9186 81.848 45.2425C81.854 45.5664 81.5867 45.8961 81.0342 46.2318C80.3214 46.6558 79.5195 46.8619 78.6166 46.856C78.1533 46.856 77.7078 46.7912 77.2742 46.6676C76.8465 46.5498 76.5257 46.379 76.3238 46.1435C76.1218 45.9079 76.0268 45.6488 76.0565 45.3662C76.0802 45.0835 76.1634 44.8067 76.2941 44.5359C76.4247 44.265 76.6029 44.0059 76.8227 43.7527C77.6306 42.7634 78.7354 41.8801 80.1492 41.1146C81.5451 40.3608 82.7925 39.9486 83.8973 39.8838C85.0259 39.8191 85.7269 40.1606 85.9882 40.9085C86.1367 41.3207 86.1427 41.8448 86.0001 42.4866C86.3862 42.0567 86.7723 41.674 87.1584 41.3324C87.5445 40.9909 87.9485 40.6965 88.3761 40.4315C88.8038 40.1724 89.2315 39.9898 89.6651 39.8897C90.0987 39.7896 90.5205 39.7778 90.9185 39.8544H90.9066ZM83.8617 47.7746C84.6339 48.6874 85.614 48.7168 86.808 47.8571C87.7821 47.1563 88.7088 46.0375 89.5938 44.5005C90.3482 43.1874 90.764 42.1333 90.8413 41.3324C90.8769 40.8967 90.7819 40.6552 90.5502 40.614C90.2176 40.5492 89.8433 40.614 89.4275 40.8319C89.0117 41.0439 88.6078 41.3442 88.2098 41.727C87.8118 42.1097 87.4138 42.5514 87.004 43.0401C86.5941 43.5348 86.2258 44.0235 85.8932 44.5123C85.5606 45.0011 85.2576 45.4604 84.9903 45.8903C84.723 46.3201 84.5151 46.6558 84.3725 46.909C84.23 47.1622 84.1528 47.2917 84.1528 47.3094C84.1468 47.3212 84.1231 47.3801 84.0934 47.4802C84.0637 47.5803 84.028 47.651 83.9924 47.6981C83.9567 47.7452 83.9092 47.7687 83.8498 47.7746H83.8617Z" fill="#FDAC0D"/>
<path d="M95.4032 49.9652C95.4923 49.9475 95.5755 49.9534 95.6527 49.9887C95.7299 50.0241 95.7834 50.0712 95.8131 50.1301C95.8368 50.189 95.8309 50.2478 95.7893 50.3008C95.5458 50.5894 95.3141 50.8603 95.0943 51.1017C94.9993 51.19 94.8627 51.3314 94.6845 51.5198C94.5063 51.7082 94.3578 51.8613 94.239 51.985C94.1142 52.1087 93.9657 52.2382 93.7875 52.3795C93.6093 52.5209 93.4133 52.6386 93.2113 52.7387C93.0094 52.8389 92.7837 52.9095 92.5461 52.9566C92.249 53.0096 91.9936 53.0155 91.7917 52.9802C91.5897 52.9449 91.4115 52.886 91.2749 52.8094C91.1323 52.7329 91.0313 52.6269 90.9601 52.4855C90.8888 52.3442 90.8413 52.2088 90.8116 52.0674C90.7819 51.9261 90.77 51.773 90.7878 51.6022C90.7997 51.4315 90.8234 51.2725 90.8531 51.1253C90.8828 50.978 90.9185 50.8367 90.966 50.6895C92.1778 46.7618 93.1044 44.1825 93.7519 42.94C93.8588 42.7928 94.0251 42.7516 94.2508 42.8164C94.4766 42.8811 94.7023 42.9813 94.928 43.1167C95.1537 43.2521 95.2844 43.3581 95.326 43.4288C95.4983 43.6938 95.5398 43.9882 95.4448 44.3003C95.3557 44.5359 95.1716 45.0246 94.8864 45.7607C94.6013 46.4968 94.3518 47.1622 94.132 47.7569C93.9123 48.3517 93.6865 48.9877 93.4549 49.6708C93.2232 50.3538 93.0628 50.925 92.9678 51.3785C92.8787 51.8319 92.8668 52.1204 92.95 52.25C93.5737 51.8672 94.3281 51.1429 95.225 50.083C95.2666 50.03 95.3319 49.9946 95.421 49.977L95.4032 49.9652Z" fill="#FDAC0D"/>
<path d="M102.971 48.8581C103.066 48.8405 103.143 48.8581 103.22 48.8876C103.292 48.9229 103.345 48.97 103.363 49.0289C103.387 49.0878 103.375 49.1467 103.327 49.1997C102.739 49.8592 102.139 50.4422 101.521 50.9427C100.904 51.4432 100.393 51.7259 99.9889 51.7966C99.2583 51.9202 98.7415 51.8731 98.4386 51.667C98.1356 51.4609 97.9871 51.137 98.005 50.7013C97.9515 50.7719 97.8802 50.8779 97.7792 51.0134C97.6842 51.1488 97.601 51.2607 97.5416 51.3372C97.4822 51.4197 97.405 51.5021 97.3218 51.5905C97.2387 51.6788 97.1555 51.7436 97.0724 51.7789C96.9892 51.8201 96.9061 51.8319 96.817 51.826C96.6744 51.826 96.5437 51.826 96.4249 51.826C96.3061 51.826 96.1873 51.8083 96.0804 51.7966C95.9735 51.7789 95.8784 51.7671 95.7953 51.7495C95.7121 51.7318 95.6349 51.7141 95.5636 51.6847C95.4923 51.6552 95.4329 51.6376 95.3795 51.614C95.326 51.5964 95.2785 51.5728 95.231 51.5434C95.1834 51.5139 95.1478 51.4962 95.1181 51.4786C95.0943 51.4609 95.0646 51.4432 95.0349 51.4256C95.0052 51.402 94.9874 51.3902 94.9874 51.3844C94.732 51.2136 94.5835 50.9368 94.536 50.5423C94.4884 50.1477 94.536 49.7296 94.6666 49.2644C94.8033 48.8051 95.0112 48.3282 95.2844 47.8335C95.5577 47.3389 95.8844 46.8972 96.2526 46.5203C96.413 46.3496 96.6209 46.1788 96.8823 46.0139C97.1437 45.8431 97.4347 45.7018 97.7495 45.5899C98.0644 45.478 98.3673 45.4074 98.6524 45.3838C98.9375 45.3603 99.187 45.4309 99.4068 45.5899C99.6266 45.7489 99.7632 45.9962 99.8286 46.3437C100.001 46.0316 100.155 45.8019 100.286 45.6547C100.393 45.5193 100.535 45.4839 100.726 45.5428C100.916 45.6017 101.094 45.69 101.26 45.8078C101.426 45.9256 101.533 46.0139 101.587 46.0905C101.753 46.3201 101.777 46.5792 101.664 46.8619C100.72 48.9465 100.191 50.2537 100.084 50.7837C100.025 51.0723 100.048 51.2195 100.161 51.2195C100.826 50.9133 101.694 50.1595 102.751 48.9582C102.793 48.9052 102.864 48.8699 102.953 48.8522L102.971 48.8581ZM96.7813 51.1135C96.8526 51.1606 96.9536 51.1311 97.0843 51.0134C97.2149 50.8956 97.3634 50.7248 97.5298 50.5011C97.6961 50.2773 97.8624 50.0359 98.0228 49.7826C98.1832 49.5294 98.3435 49.2644 98.5039 48.9877C98.593 48.7816 98.7772 48.3929 99.0563 47.8158C98.8366 47.8158 98.7653 47.7511 98.8306 47.6097C99.0385 47.3153 99.1692 47.0503 99.2167 46.8207C99.2642 46.591 99.2583 46.4261 99.1989 46.3319C99.1395 46.2377 99.0563 46.167 98.9494 46.1317C98.6702 46.22 98.3317 46.6028 97.9396 47.2682C97.5476 47.9395 97.2268 48.6579 96.9833 49.4293C96.7397 50.2007 96.6744 50.7602 96.7813 51.1135Z" fill="#FDAC0D"/>
<path d="M108.234 46.3496C108.329 46.5262 108.293 46.8442 108.115 47.3094C108.073 47.4213 108.008 47.5862 107.919 47.81C107.675 48.4754 107.485 48.97 107.355 49.3057C107.224 49.6355 107.04 50.083 106.808 50.6424C106.576 51.2077 106.38 51.6258 106.232 51.9144C106.077 52.197 105.881 52.5444 105.644 52.9508C105.406 53.3571 105.181 53.6574 104.967 53.8576C104.753 54.0578 104.509 54.2639 104.242 54.4759C103.975 54.6879 103.696 54.8292 103.399 54.9058C103.107 54.9823 102.793 55.0118 102.46 55C102.205 54.9882 101.961 54.9529 101.729 54.8881C101.498 54.8292 101.302 54.7527 101.135 54.6644C100.975 54.576 100.821 54.4759 100.684 54.364C100.547 54.2522 100.434 54.1462 100.363 54.0402C100.286 53.9342 100.227 53.8341 100.173 53.7339C100.12 53.6397 100.096 53.5573 100.102 53.4925C100.102 53.4277 100.12 53.3865 100.132 53.3689C100.256 53.2982 100.524 53.2275 100.945 53.1627C101.367 53.098 101.587 53.1039 101.617 53.1922C101.622 53.416 101.658 53.6103 101.706 53.7693C101.759 53.9283 101.818 54.046 101.884 54.1108C101.949 54.1815 102.02 54.2345 102.104 54.2757C102.187 54.3169 102.258 54.3287 102.329 54.3169C102.401 54.3051 102.46 54.2993 102.513 54.2993C102.935 54.1874 103.547 53.1686 104.355 51.2313C103.797 51.6553 103.203 51.8731 102.579 51.8908C102.353 51.8967 102.151 51.8731 101.979 51.826C101.807 51.7789 101.676 51.7024 101.581 51.6023C101.486 51.5021 101.403 51.3903 101.343 51.2725C101.284 51.1488 101.254 51.0075 101.26 50.8426C101.26 50.6777 101.272 50.5187 101.278 50.3656C101.284 50.2125 101.32 50.0418 101.379 49.8474C101.438 49.6531 101.486 49.4882 101.527 49.3528C101.569 49.2174 101.628 49.0584 101.706 48.8876C101.783 48.7168 101.836 48.5814 101.878 48.4989C101.919 48.4165 101.961 48.3164 102.015 48.1986C102.05 48.1338 102.139 47.9454 102.276 47.6451C102.412 47.3448 102.537 47.0916 102.632 46.8855C102.727 46.6852 102.846 46.4556 102.989 46.2024C103.131 45.9492 103.25 45.7666 103.357 45.6429C103.452 45.5016 103.6 45.4604 103.791 45.5193C103.981 45.5782 104.165 45.6606 104.331 45.7725C104.497 45.8844 104.61 45.9786 104.676 46.0493C104.842 46.2848 104.878 46.5439 104.783 46.8207C104.747 46.8913 104.693 47.015 104.622 47.1858C104.527 47.4272 104.444 47.6156 104.385 47.757C104.325 47.8983 104.242 48.0985 104.135 48.3635C104.028 48.6285 103.945 48.8464 103.88 49.0171C103.814 49.1879 103.737 49.3881 103.654 49.6237C103.571 49.8592 103.511 50.0477 103.47 50.2066C103.428 50.3598 103.399 50.5129 103.363 50.666C103.327 50.8191 103.321 50.9368 103.339 51.0311C103.351 51.1194 103.381 51.1842 103.422 51.2136C103.476 51.2489 103.63 51.1606 103.88 50.9368C104.135 50.7131 104.45 50.4069 104.824 50.0182C104.919 49.765 105.074 49.3587 105.287 48.8051C105.501 48.2516 105.65 47.8394 105.745 47.5862C105.84 47.333 105.959 47.0268 106.095 46.6793C106.232 46.3319 106.339 46.0669 106.41 45.8903C106.481 45.7136 106.547 45.5899 106.6 45.5252C106.713 45.3544 106.992 45.4133 107.438 45.6959C107.883 45.9786 108.145 46.2024 108.234 46.3614V46.3496Z" fill="#FDAC0D"/>
<path d="M85.9823 34.955L97.2565 17.0947L88.691 8.20877L85.9823 34.955Z" fill="#FDAC0D"/>
<path d="M79.0918 13.4791L85.9823 34.955L88.691 8.20877L79.0918 13.4791Z" fill="#A65308"/>
<path d="M89.9918 5.59422C91.5501 5.59422 92.8134 4.34191 92.8134 2.79711C92.8134 1.25231 91.5501 0 89.9918 0C88.4335 0 87.1703 1.25231 87.1703 2.79711C87.1703 4.34191 88.4335 5.59422 89.9918 5.59422Z" fill="white"/>
</g>
<defs>
<clipPath id="clip0_84_20">
<rect width="109" height="55" fill="white"/>
</clipPath>
</defs>
</svg>
